<mxfile host="65bd71144e" modified="2020-12-21T21:20:20.344Z" agent="5.0 (Windows NT 10.0; Win64; x64) AppleWebKit/537.36 (KHTML, like Gecko) Code/1.52.1 Chrome/83.0.4103.122 Electron/9.3.5 Safari/537.36" etag="Fe4stN4DGKyCKaPo5PNr" version="13.10.0" type="embed">
    <diagram id="NQPIBU51N4r4HcMWRRt7" name="Page-1">
        <mxGraphModel dx="828" dy="617" grid="1" gridSize="10" guides="1" tooltips="1" connect="1" arrows="1" fold="1" page="0" pageScale="1" pageWidth="800" pageHeight="600" background="#ffffff" math="0" shadow="0">
            <root>
                <mxCell id="0"/>
                <mxCell id="1" parent="0"/>
                <mxCell id="64" value="" style="rounded=0;whiteSpace=wrap;html=1;" vertex="1" parent="1">
                    <mxGeometry x="40" y="90" width="460" height="490" as="geometry"/>
                </mxCell>
                <mxCell id="36" value="Rating" style="swimlane;fontStyle=0;childLayout=stackLayout;horizontal=1;startSize=26;fillColor=none;horizontalStack=0;resizeParent=1;resizeParentMax=0;resizeLast=0;collapsible=1;marginBottom=0;labelBackgroundColor=none;fontColor=#000000;strokeColor=#000000;" parent="1" vertex="1">
                    <mxGeometry x="320" y="505" width="140" height="52" as="geometry"/>
                </mxCell>
                <mxCell id="38" value="+ rating: Number" style="text;strokeColor=#000000;fillColor=none;align=left;verticalAlign=top;spacingLeft=4;spacingRight=4;overflow=hidden;rotatable=0;points=[[0,0.5],[1,0.5]];portConstraint=eastwest;fontColor=#000000;" parent="36" vertex="1">
                    <mxGeometry y="26" width="140" height="26" as="geometry"/>
                </mxCell>
                <mxCell id="10" value="Conference" style="swimlane;fontStyle=0;childLayout=stackLayout;horizontal=1;startSize=26;fillColor=none;horizontalStack=0;resizeParent=1;resizeParentMax=0;resizeLast=0;collapsible=1;marginBottom=0;labelBackgroundColor=none;fontColor=#000000;strokeColor=#000000;" parent="1" vertex="1">
                    <mxGeometry x="90" y="100" width="140" height="130" as="geometry">
                        <mxRectangle x="90" y="100" width="90" height="26" as="alternateBounds"/>
                    </mxGeometry>
                </mxCell>
                <mxCell id="11" value="+ speaker: String" style="text;strokeColor=#000000;fillColor=none;align=left;verticalAlign=top;spacingLeft=4;spacingRight=4;overflow=hidden;rotatable=0;points=[[0,0.5],[1,0.5]];portConstraint=eastwest;fontColor=#000000;" parent="10" vertex="1">
                    <mxGeometry y="26" width="140" height="26" as="geometry"/>
                </mxCell>
                <mxCell id="12" value="+ description: String" style="text;strokeColor=#000000;fillColor=none;align=left;verticalAlign=top;spacingLeft=4;spacingRight=4;overflow=hidden;rotatable=0;points=[[0,0.5],[1,0.5]];portConstraint=eastwest;fontColor=#000000;" parent="10" vertex="1">
                    <mxGeometry y="52" width="140" height="26" as="geometry"/>
                </mxCell>
                <mxCell id="13" value="+ startDate: Date" style="text;strokeColor=#000000;fillColor=none;align=left;verticalAlign=top;spacingLeft=4;spacingRight=4;overflow=hidden;rotatable=0;points=[[0,0.5],[1,0.5]];portConstraint=eastwest;fontColor=#000000;" parent="10" vertex="1">
                    <mxGeometry y="78" width="140" height="26" as="geometry"/>
                </mxCell>
                <mxCell id="17" value="+ title: String" style="text;strokeColor=#000000;fillColor=none;align=left;verticalAlign=top;spacingLeft=4;spacingRight=4;overflow=hidden;rotatable=0;points=[[0,0.5],[1,0.5]];portConstraint=eastwest;fontColor=#000000;" parent="10" vertex="1">
                    <mxGeometry y="104" width="140" height="26" as="geometry"/>
                </mxCell>
                <mxCell id="20" value="Topic" style="swimlane;fontStyle=0;childLayout=stackLayout;horizontal=1;startSize=26;fillColor=none;horizontalStack=0;resizeParent=1;resizeParentMax=0;resizeLast=0;collapsible=1;marginBottom=0;labelBackgroundColor=none;fontColor=#000000;strokeColor=#000000;" parent="1" vertex="1">
                    <mxGeometry x="335" y="139" width="140" height="52" as="geometry"/>
                </mxCell>
                <mxCell id="21" value="+ name: String" style="text;strokeColor=#000000;fillColor=none;align=left;verticalAlign=top;spacingLeft=4;spacingRight=4;overflow=hidden;rotatable=0;points=[[0,0.5],[1,0.5]];portConstraint=eastwest;fontColor=#000000;" parent="20" vertex="1">
                    <mxGeometry y="26" width="140" height="26" as="geometry"/>
                </mxCell>
                <mxCell id="24" value="1" style="endArrow=open;html=1;endSize=12;startArrow=diamondThin;startSize=14;startFill=0;align=left;verticalAlign=bottom;exitX=1;exitY=0.5;exitDx=0;exitDy=0;fontColor=#000000;strokeColor=#000000;labelBackgroundColor=none;" parent="1" source="12" target="20" edge="1">
                    <mxGeometry x="-1" y="3" relative="1" as="geometry">
                        <mxPoint x="320" y="320" as="sourcePoint"/>
                        <mxPoint x="480" y="320" as="targetPoint"/>
                    </mxGeometry>
                </mxCell>
                <mxCell id="25" value="*" style="text;html=1;align=center;verticalAlign=middle;resizable=0;points=[];autosize=1;fontColor=#000000;strokeColor=none;" parent="1" vertex="1">
                    <mxGeometry x="302" y="145" width="20" height="20" as="geometry"/>
                </mxCell>
                <mxCell id="26" value="Question" style="swimlane;fontStyle=0;childLayout=stackLayout;horizontal=1;startSize=26;fillColor=none;horizontalStack=0;resizeParent=1;resizeParentMax=0;resizeLast=0;collapsible=1;marginBottom=0;labelBackgroundColor=none;fontColor=#000000;strokeColor=#000000;" parent="1" vertex="1">
                    <mxGeometry x="300" y="238" width="180" height="208" as="geometry"/>
                </mxCell>
                <mxCell id="27" value="+ authorDisplayName: String&#10;" style="text;strokeColor=#000000;fillColor=none;align=left;verticalAlign=top;spacingLeft=4;spacingRight=4;overflow=hidden;rotatable=0;points=[[0,0.5],[1,0.5]];portConstraint=eastwest;fontColor=#000000;" parent="26" vertex="1">
                    <mxGeometry y="26" width="180" height="26" as="geometry"/>
                </mxCell>
                <mxCell id="28" value="+ authorID: String" style="text;strokeColor=#000000;fillColor=none;align=left;verticalAlign=top;spacingLeft=4;spacingRight=4;overflow=hidden;rotatable=0;points=[[0,0.5],[1,0.5]];portConstraint=eastwest;fontColor=#000000;" parent="26" vertex="1">
                    <mxGeometry y="52" width="180" height="26" as="geometry"/>
                </mxCell>
                <mxCell id="29" value="+ authorPlatform: String" style="text;strokeColor=#000000;fillColor=none;align=left;verticalAlign=top;spacingLeft=4;spacingRight=4;overflow=hidden;rotatable=0;points=[[0,0.5],[1,0.5]];portConstraint=eastwest;fontColor=#000000;" parent="26" vertex="1">
                    <mxGeometry y="78" width="180" height="26" as="geometry"/>
                </mxCell>
                <mxCell id="32" value="+ avgRating: Number" style="text;strokeColor=#000000;fillColor=none;align=left;verticalAlign=top;spacingLeft=4;spacingRight=4;overflow=hidden;rotatable=0;points=[[0,0.5],[1,0.5]];portConstraint=eastwest;fontColor=#000000;" parent="26" vertex="1">
                    <mxGeometry y="104" width="180" height="26" as="geometry"/>
                </mxCell>
                <mxCell id="33" value="+ content: String" style="text;strokeColor=#000000;fillColor=none;align=left;verticalAlign=top;spacingLeft=4;spacingRight=4;overflow=hidden;rotatable=0;points=[[0,0.5],[1,0.5]];portConstraint=eastwest;fontColor=#000000;" parent="26" vertex="1">
                    <mxGeometry y="130" width="180" height="26" as="geometry"/>
                </mxCell>
                <mxCell id="34" value="+ postDate: Date" style="text;strokeColor=#000000;fillColor=none;align=left;verticalAlign=top;spacingLeft=4;spacingRight=4;overflow=hidden;rotatable=0;points=[[0,0.5],[1,0.5]];portConstraint=eastwest;fontColor=#000000;" parent="26" vertex="1">
                    <mxGeometry y="156" width="180" height="26" as="geometry"/>
                </mxCell>
                <mxCell id="35" value="+ totalRatings: Number" style="text;strokeColor=#000000;fillColor=none;align=left;verticalAlign=top;spacingLeft=4;spacingRight=4;overflow=hidden;rotatable=0;points=[[0,0.5],[1,0.5]];portConstraint=eastwest;fontColor=#000000;" parent="26" vertex="1">
                    <mxGeometry y="182" width="180" height="26" as="geometry"/>
                </mxCell>
                <mxCell id="30" value="1" style="endArrow=open;html=1;endSize=12;startArrow=diamondThin;startSize=14;startFill=1;edgeStyle=orthogonalEdgeStyle;align=left;verticalAlign=bottom;entryX=0;entryY=0.5;entryDx=0;entryDy=0;fontColor=#000000;strokeColor=#000000;labelBackgroundColor=none;" parent="1" source="10" target="28" edge="1">
                    <mxGeometry x="-0.8437" y="10" relative="1" as="geometry">
                        <mxPoint x="380" y="360" as="sourcePoint"/>
                        <mxPoint x="540" y="360" as="targetPoint"/>
                        <mxPoint as="offset"/>
                        <Array as="points">
                            <mxPoint x="200" y="303"/>
                        </Array>
                    </mxGeometry>
                </mxCell>
                <mxCell id="31" value="*" style="text;html=1;align=center;verticalAlign=middle;resizable=0;points=[];autosize=1;fontColor=#000000;strokeColor=none;" parent="1" vertex="1">
                    <mxGeometry x="277" y="274" width="20" height="20" as="geometry"/>
                </mxCell>
                <mxCell id="40" value="1" style="endArrow=open;html=1;endSize=12;startArrow=diamondThin;startSize=14;startFill=1;align=left;verticalAlign=bottom;fontColor=#000000;strokeColor=#000000;fillColor=none;labelBackgroundColor=none;" parent="1" target="36" edge="1" source="26">
                    <mxGeometry x="-0.4894" y="10" relative="1" as="geometry">
                        <mxPoint x="479.99999999999994" y="373.98800000000006" as="sourcePoint"/>
                        <mxPoint x="643.9399999999998" y="498" as="targetPoint"/>
                        <mxPoint as="offset"/>
                    </mxGeometry>
                </mxCell>
                <mxCell id="41" value="*" style="text;html=1;align=center;verticalAlign=middle;resizable=0;points=[];autosize=1;fontColor=#000000;strokeColor=none;" parent="1" vertex="1">
                    <mxGeometry x="395" y="487" width="20" height="20" as="geometry"/>
                </mxCell>
                <mxCell id="42" value="Moderators" style="swimlane;fontStyle=0;childLayout=stackLayout;horizontal=1;startSize=26;fillColor=none;horizontalStack=0;resizeParent=1;resizeParentMax=0;resizeLast=0;collapsible=1;marginBottom=0;labelBackgroundColor=none;fontColor=#000000;strokeColor=#000000;" parent="1" vertex="1">
                    <mxGeometry x="90" y="492" width="140" height="78" as="geometry"/>
                </mxCell>
                <mxCell id="43" value="+ email: String" style="text;strokeColor=#000000;fillColor=none;align=left;verticalAlign=top;spacingLeft=4;spacingRight=4;overflow=hidden;rotatable=0;points=[[0,0.5],[1,0.5]];portConstraint=eastwest;fontColor=#000000;" parent="42" vertex="1">
                    <mxGeometry y="26" width="140" height="26" as="geometry"/>
                </mxCell>
                <mxCell id="44" value="+ username: String" style="text;strokeColor=#000000;fillColor=none;align=left;verticalAlign=top;spacingLeft=4;spacingRight=4;overflow=hidden;rotatable=0;points=[[0,0.5],[1,0.5]];portConstraint=eastwest;fontColor=#000000;" parent="42" vertex="1">
                    <mxGeometry y="52" width="140" height="26" as="geometry"/>
                </mxCell>
                <mxCell id="46" value="" style="endArrow=none;html=1;fontColor=#000000;strokeColor=#000000;" parent="1" source="42" target="10" edge="1">
                    <mxGeometry relative="1" as="geometry">
                        <mxPoint x="108" y="492" as="sourcePoint"/>
                        <mxPoint x="645" y="442" as="targetPoint"/>
                    </mxGeometry>
                </mxCell>
                <mxCell id="47" value="*" style="edgeLabel;resizable=0;html=1;align=left;verticalAlign=bottom;fontColor=#000000;strokeColor=#000000;labelBackgroundColor=none;" parent="46" connectable="0" vertex="1">
                    <mxGeometry x="-1" relative="1" as="geometry">
                        <mxPoint x="3" as="offset"/>
                    </mxGeometry>
                </mxCell>
                <mxCell id="48" value="*" style="edgeLabel;resizable=0;html=1;align=right;verticalAlign=bottom;fontColor=#000000;strokeColor=#000000;labelBackgroundColor=none;" parent="46" connectable="0" vertex="1">
                    <mxGeometry x="1" relative="1" as="geometry">
                        <mxPoint x="7.939999999999998" y="16.06" as="offset"/>
                    </mxGeometry>
                </mxCell>
                <mxCell id="49" value="Invite" style="swimlane;fontStyle=0;childLayout=stackLayout;horizontal=1;startSize=26;fillColor=none;horizontalStack=0;resizeParent=1;resizeParentMax=0;resizeLast=0;collapsible=1;marginBottom=0;labelBackgroundColor=none;fontColor=#000000;strokeColor=#000000;" vertex="1" parent="1">
                    <mxGeometry x="50" y="340" width="83" height="52" as="geometry"/>
                </mxCell>
                <mxCell id="55" value="" style="endArrow=none;html=1;fontColor=#000000;strokeColor=#000000;" edge="1" parent="1" source="42" target="36">
                    <mxGeometry relative="1" as="geometry">
                        <mxPoint x="118" y="502" as="sourcePoint"/>
                        <mxPoint x="117.63999999999999" y="240.05200000000002" as="targetPoint"/>
                    </mxGeometry>
                </mxCell>
                <mxCell id="56" value="1" style="edgeLabel;resizable=0;html=1;align=left;verticalAlign=bottom;fontColor=#000000;strokeColor=#000000;labelBackgroundColor=none;" connectable="0" vertex="1" parent="55">
                    <mxGeometry x="-1" relative="1" as="geometry"/>
                </mxCell>
                <mxCell id="57" value="*" style="edgeLabel;resizable=0;html=1;align=right;verticalAlign=bottom;fontColor=#000000;strokeColor=#000000;labelBackgroundColor=none;" connectable="0" vertex="1" parent="55">
                    <mxGeometry x="1" relative="1" as="geometry">
                        <mxPoint x="-5.06" y="4.189999999999998" as="offset"/>
                    </mxGeometry>
                </mxCell>
                <mxCell id="58" value="" style="endArrow=none;html=1;fontColor=#000000;strokeColor=#000000;edgeStyle=orthogonalEdgeStyle;entryX=0.25;entryY=0;entryDx=0;entryDy=0;" edge="1" parent="1" source="49" target="42">
                    <mxGeometry relative="1" as="geometry">
                        <mxPoint x="118" y="502.0000000000001" as="sourcePoint"/>
                        <mxPoint x="117.63999999999987" y="240.05200000000002" as="targetPoint"/>
                    </mxGeometry>
                </mxCell>
                <mxCell id="59" value="*" style="edgeLabel;resizable=0;html=1;align=left;verticalAlign=bottom;fontColor=#000000;strokeColor=#000000;labelBackgroundColor=none;" connectable="0" vertex="1" parent="58">
                    <mxGeometry x="-1" relative="1" as="geometry">
                        <mxPoint x="-10.52" y="18" as="offset"/>
                    </mxGeometry>
                </mxCell>
                <mxCell id="60" value="1" style="edgeLabel;resizable=0;html=1;align=right;verticalAlign=bottom;fontColor=#000000;strokeColor=#000000;labelBackgroundColor=none;" connectable="0" vertex="1" parent="58">
                    <mxGeometry x="1" relative="1" as="geometry">
                        <mxPoint x="-2.0599999999999996" y="-3.9400000000000013" as="offset"/>
                    </mxGeometry>
                </mxCell>
                <mxCell id="61" value="" style="endArrow=none;html=1;fontColor=#000000;strokeColor=#000000;edgeStyle=orthogonalEdgeStyle;entryX=0.25;entryY=1;entryDx=0;entryDy=0;" edge="1" parent="1" source="49" target="10">
                    <mxGeometry relative="1" as="geometry">
                        <mxPoint x="128" y="512.0000000000001" as="sourcePoint"/>
                        <mxPoint x="127.63999999999987" y="250.05200000000002" as="targetPoint"/>
                    </mxGeometry>
                </mxCell>
                <mxCell id="62" value="*" style="edgeLabel;resizable=0;html=1;align=left;verticalAlign=bottom;fontColor=#000000;strokeColor=#000000;labelBackgroundColor=none;" connectable="0" vertex="1" parent="61">
                    <mxGeometry x="-1" relative="1" as="geometry">
                        <mxPoint x="-9.77" as="offset"/>
                    </mxGeometry>
                </mxCell>
                <mxCell id="63" value="1" style="edgeLabel;resizable=0;html=1;align=right;verticalAlign=bottom;fontColor=#000000;strokeColor=#000000;labelBackgroundColor=none;" connectable="0" vertex="1" parent="61">
                    <mxGeometry x="1" relative="1" as="geometry">
                        <mxPoint x="-9.059999999999999" y="15.059999999999999" as="offset"/>
                    </mxGeometry>
                </mxCell>
            </root>
        </mxGraphModel>
    </diagram>
</mxfile>